<svg width="588" height="241" viewBox="0 0 588 241" fill="none" xmlns="http://www.w3.org/2000/svg">
<path d="M230 31C238.284 31 245 37.7157 245 46V61C245 69.2843 251.716 76 260 76V76C268.284 76 275 69.2843 275 61V16C275 7.71573 268.284 1 260 1L185 1C176.716 1 170 7.71573 170 16V16C170 24.2843 176.716 31 185 31L230 31Z" fill="#3E5BA6" stroke="#3E5BA6"/>
<path d="M85 210C76.7157 210 70 203.284 70 195V180C70 171.716 63.2843 165 55 165V165C46.7157 165 40 171.716 40 180L40 225C40 233.284 46.7157 240 55 240L130 240C138.284 240 145 233.284 145 225V225C145 216.716 138.284 210 130 210L85 210Z" fill="#3E5BA6" stroke="#3E5BA6"/>
<path d="M85 31C76.7157 31 70 37.7157 70 46V61C70 69.2843 63.2843 76 55 76V76C46.7157 76 40 69.2843 40 61L40 16C40 7.71573 46.7157 1 55 1L130 1C138.284 1 145 7.71573 145 16V16C145 24.2843 138.284 31 130 31L85 31Z" fill="#3E5BA6" stroke="#3E5BA6"/>
<path d="M231 210C239.284 210 246 203.284 246 195V180C246 171.716 252.716 165 261 165V165C269.284 165 276 171.716 276 180V225C276 233.284 269.284 240 261 240L186 240C177.716 240 171 233.284 171 225V225C171 216.716 177.716 210 186 210L231 210Z" fill="#3E5BA6" stroke="#3E5BA6"/>
<ellipse cx="113" cy="86.5" rx="20" ry="20.5" fill="white"/>
<path d="M80.821 114C98.4182 114 128.636 114 144.811 114C160.986 114 144.811 180 144.811 180H80.821C80.821 180 63.2238 114 80.821 114Z" fill="white"/>
<ellipse cx="204" cy="86.5" rx="20" ry="20.5" fill="white"/>
<path d="M171.821 114C189.418 114 219.636 114 235.811 114C251.986 114 235.811 180 235.811 180H171.821C171.821 180 154.224 114 171.821 114Z" fill="white"/>
<path d="M4.3 121.4C4.3 115.8 5.43333 110.9 7.7 106.7C9.96667 102.433 13.0667 99.1333 17 96.8C21 94.4667 25.4333 93.3 30.3 93.3C35.1 93.3 39.2667 94.3333 42.8 96.4C46.3333 98.4667 48.9667 101.067 50.7 104.2V94.2H59.9V149H50.7V138.8C48.9 142 46.2 144.667 42.6 146.8C39.0667 148.867 34.9333 149.9 30.2 149.9C25.3333 149.9 20.9333 148.7 17 146.3C13.0667 143.9 9.96667 140.533 7.7 136.2C5.43333 131.867 4.3 126.933 4.3 121.4ZM50.7 121.5C50.7 117.367 49.8667 113.767 48.2 110.7C46.5333 107.633 44.2667 105.3 41.4 103.7C38.6 102.033 35.5 101.2 32.1 101.2C28.7 101.2 25.6 102 22.8 103.6C20 105.2 17.7667 107.533 16.1 110.6C14.4333 113.667 13.6 117.267 13.6 121.4C13.6 125.6 14.4333 129.267 16.1 132.4C17.7667 135.467 20 137.833 22.8 139.5C25.6 141.1 28.7 141.9 32.1 141.9C35.5 141.9 38.6 141.1 41.4 139.5C44.2667 137.833 46.5333 135.467 48.2 132.4C49.8667 129.267 50.7 125.633 50.7 121.5Z" fill="white"/>
<path d="M305.7 119.5C305.7 121.233 305.6 123.067 305.4 125H261.6C261.933 130.4 263.767 134.633 267.1 137.7C270.5 140.7 274.6 142.2 279.4 142.2C283.333 142.2 286.6 141.3 289.2 139.5C291.867 137.633 293.733 135.167 294.8 132.1H304.6C303.133 137.367 300.2 141.667 295.8 145C291.4 148.267 285.933 149.9 279.4 149.9C274.2 149.9 269.533 148.733 265.4 146.4C261.333 144.067 258.133 140.767 255.8 136.5C253.467 132.167 252.3 127.167 252.3 121.5C252.3 115.833 253.433 110.867 255.7 106.6C257.967 102.333 261.133 99.0667 265.2 96.8C269.333 94.4667 274.067 93.3 279.4 93.3C284.6 93.3 289.2 94.4333 293.2 96.7C297.2 98.9667 300.267 102.1 302.4 106.1C304.6 110.033 305.7 114.5 305.7 119.5ZM296.3 117.6C296.3 114.133 295.533 111.167 294 108.7C292.467 106.167 290.367 104.267 287.7 103C285.1 101.667 282.2 101 279 101C274.4 101 270.467 102.467 267.2 105.4C264 108.333 262.167 112.4 261.7 117.6H296.3ZM344.412 93.2C351.078 93.2 356.478 95.2333 360.612 99.3C364.745 103.3 366.812 109.1 366.812 116.7V149H357.812V118C357.812 112.533 356.445 108.367 353.712 105.5C350.978 102.567 347.245 101.1 342.512 101.1C337.712 101.1 333.878 102.6 331.012 105.6C328.212 108.6 326.812 112.967 326.812 118.7V149H317.712V94.2H326.812V102C328.612 99.2 331.045 97.0333 334.112 95.5C337.245 93.9667 340.678 93.2 344.412 93.2ZM378.277 121.4C378.277 115.8 379.41 110.9 381.677 106.7C383.943 102.433 387.043 99.1333 390.977 96.8C394.977 94.4667 399.443 93.3 404.377 93.3C408.643 93.3 412.61 94.3 416.277 96.3C419.943 98.2333 422.743 100.8 424.677 104V75H433.877V149H424.677V138.7C422.877 141.967 420.21 144.667 416.677 146.8C413.143 148.867 409.01 149.9 404.277 149.9C399.41 149.9 394.977 148.7 390.977 146.3C387.043 143.9 383.943 140.533 381.677 136.2C379.41 131.867 378.277 126.933 378.277 121.4ZM424.677 121.5C424.677 117.367 423.843 113.767 422.177 110.7C420.51 107.633 418.243 105.3 415.377 103.7C412.577 102.033 409.477 101.2 406.077 101.2C402.677 101.2 399.577 102 396.777 103.6C393.977 105.2 391.743 107.533 390.077 110.6C388.41 113.667 387.577 117.267 387.577 121.4C387.577 125.6 388.41 129.267 390.077 132.4C391.743 135.467 393.977 137.833 396.777 139.5C399.577 141.1 402.677 141.9 406.077 141.9C409.477 141.9 412.577 141.1 415.377 139.5C418.243 137.833 420.51 135.467 422.177 132.4C423.843 129.267 424.677 125.633 424.677 121.5ZM452.155 149.6C450.421 149.6 448.955 149 447.755 147.8C446.555 146.6 445.955 145.133 445.955 143.4C445.955 141.667 446.555 140.2 447.755 139C448.955 137.8 450.421 137.2 452.155 137.2C453.821 137.2 455.221 137.8 456.355 139C457.555 140.2 458.155 141.667 458.155 143.4C458.155 145.133 457.555 146.6 456.355 147.8C455.221 149 453.821 149.6 452.155 149.6ZM466.851 121.5C466.851 115.833 467.984 110.9 470.251 106.7C472.517 102.433 475.651 99.1333 479.651 96.8C483.717 94.4667 488.351 93.3 493.551 93.3C500.284 93.3 505.817 94.9333 510.151 98.2C514.551 101.467 517.451 106 518.851 111.8H509.051C508.117 108.467 506.284 105.833 503.551 103.9C500.884 101.967 497.551 101 493.551 101C488.351 101 484.151 102.8 480.951 106.4C477.751 109.933 476.151 114.967 476.151 121.5C476.151 128.1 477.751 133.2 480.951 136.8C484.151 140.4 488.351 142.2 493.551 142.2C497.551 142.2 500.884 141.267 503.551 139.4C506.217 137.533 508.051 134.867 509.051 131.4H518.851C517.384 137 514.451 141.5 510.051 144.9C505.651 148.233 500.151 149.9 493.551 149.9C488.351 149.9 483.717 148.733 479.651 146.4C475.651 144.067 472.517 140.767 470.251 136.5C467.984 132.233 466.851 127.233 466.851 121.5ZM554.893 149.9C549.76 149.9 545.093 148.733 540.893 146.4C536.76 144.067 533.493 140.767 531.093 136.5C528.76 132.167 527.593 127.167 527.593 121.5C527.593 115.9 528.793 110.967 531.193 106.7C533.66 102.367 536.993 99.0667 541.193 96.8C545.393 94.4667 550.093 93.3 555.293 93.3C560.493 93.3 565.193 94.4667 569.393 96.8C573.593 99.0667 576.893 102.333 579.293 106.6C581.76 110.867 582.993 115.833 582.993 121.5C582.993 127.167 581.726 132.167 579.193 136.5C576.726 140.767 573.36 144.067 569.093 146.4C564.826 148.733 560.093 149.9 554.893 149.9ZM554.893 141.9C558.16 141.9 561.226 141.133 564.093 139.6C566.96 138.067 569.26 135.767 570.993 132.7C572.793 129.633 573.693 125.9 573.693 121.5C573.693 117.1 572.826 113.367 571.093 110.3C569.36 107.233 567.093 104.967 564.293 103.5C561.493 101.967 558.46 101.2 555.193 101.2C551.86 101.2 548.793 101.967 545.993 103.5C543.26 104.967 541.06 107.233 539.393 110.3C537.726 113.367 536.893 117.1 536.893 121.5C536.893 125.967 537.693 129.733 539.293 132.8C540.96 135.867 543.16 138.167 545.893 139.7C548.626 141.167 551.626 141.9 554.893 141.9Z" fill="white"/>
</svg>